# Blender v2.75 (sub 0) OBJ File: 'Bricks.blend'
# www.blender.org
mtllib WhiteBrickBreak2.mtl
o OriginalBrick.011_Cube.020
v 0.349078 0.074221 0.186199
v 0.315656 0.081007 0.194605
v 0.360118 0.084814 0.158802
v 0.315656 0.103207 0.158802
v 0.364976 0.048823 0.199383
v 0.315656 0.049207 0.212802
v 0.382197 0.049207 0.158802
v -0.067803 0.081007 0.194605
v -0.067803 0.103207 0.158802
v -0.067803 0.049207 0.212802
v 0.360118 0.084814 -0.002982
v 0.349078 0.074221 -0.192162
v 0.315656 0.103207 -0.002982
v 0.315656 0.081007 -0.200569
v 0.360118 0.084814 -0.164765
v 0.315656 0.103207 -0.164765
v 0.382197 0.049207 -0.002982
v 0.364976 0.048823 -0.205347
v 0.315656 0.049207 -0.218765
v 0.382197 0.049207 -0.164765
v -0.067803 0.103207 -0.002982
v -0.067803 0.081007 -0.200569
v -0.067803 0.103207 -0.164765
v -0.067803 0.049207 -0.218765
v -0.067803 -0.076793 0.212802
v -0.067803 -0.134848 -0.218765
v -0.373519 -0.076793 0.212802
v -0.316416 0.049207 -0.218765
v -0.321631 -0.076793 -0.218765
v -0.287557 0.049207 0.212802
v 0.364947 -0.015735 0.199263
v 0.071476 -0.076793 -0.218765
v 0.382197 -0.012292 0.158802
v 0.315656 -0.025571 0.212802
v 0.382197 -0.009114 -0.002982
v 0.315656 -0.009774 -0.218765
v 0.364951 -0.005699 -0.205246
v 0.382197 -0.005825 -0.164765
v -0.373519 -0.076793 -0.001590
v 0.089539 -0.115870 0.212802
v -0.310594 0.081007 -0.200569
v -0.304586 0.103207 -0.164765
v -0.271401 0.103207 -0.002982
v -0.283609 0.103207 0.158802
v -0.284915 0.081007 0.194605
v -0.067803 -0.120726 0.212802
v -0.287557 0.049207 -0.001590
v 0.364947 -0.015735 -0.001590
v 0.315656 -0.025571 -0.001590
v 0.089539 -0.115870 -0.001590
v -0.284915 0.081007 -0.001590
v -0.067803 -0.120726 -0.001590
vt 0.139872 0.215661
vt 0.430421 0.458420
vt 0.428650 0.462133
vt 0.518607 0.676792
vt 0.515043 0.784899
vt 0.139872 0.585459
vt 0.353243 0.552532
vt 0.357027 0.587582
vt 0.428951 0.463044
vt 0.391396 0.565605
vt 0.514567 0.619012
vt 0.336913 0.520642
vt 0.365055 0.516301
vt 0.429337 0.463752
vt 0.377346 0.543187
vt 0.433971 0.456320
vt 0.834442 0.606636
vt 0.768825 0.492923
vt 0.860129 0.482039
vt 0.434849 0.456494
vt 0.504175 0.127645
vt 0.682345 0.500981
vt 0.734144 0.545142
vt 0.723680 0.449938
vt 0.826037 0.365787
vt 0.598493 0.163586
vt 0.435526 0.456748
vt 0.432375 0.462163
vt 0.433094 0.462409
vt 0.431678 0.466163
vt 0.433833 0.459971
vt 0.437885 0.460084
vt 0.434852 0.460643
vt 0.432777 0.460549
vt 0.432245 0.461927
vt 0.432216 0.461632
vt 0.501300 0.561672
vt 0.630179 0.452435
vt 0.444208 0.457744
vt 0.399688 0.528283
vt 0.412655 0.539728
vt 0.398291 0.511427
vt 0.655806 0.400673
vt 0.663341 0.266957
vt 0.556113 0.146038
vt 0.434118 0.459990
vt 0.434349 0.460107
vt 0.432647 0.466478
vt 0.431100 0.471552
vt 0.495145 0.548101
vt 0.482079 0.518717
vt 0.441008 0.469235
vt 0.436974 0.464739
vt 0.433935 0.461640
vt 0.437908 0.460154
vt 0.433119 0.460880
vt 0.432935 0.460707
vn 0.194900 0.980800 0.000000
vn 0.000000 1.000000 0.000000
vn 0.000000 0.961700 0.273900
vn 0.647300 0.762200 0.000000
vn 0.178700 0.949500 0.257800
vn 0.457300 0.661600 0.594300
vn 0.631200 0.737600 0.239800
vn 0.000000 0.694500 0.719500
vn 0.939500 0.276000 0.202600
vn 0.961700 0.274000 0.000000
vn 0.151600 0.685100 0.712500
vn 0.135800 0.258300 0.956500
vn 0.000000 0.256900 0.966400
vn 0.632200 0.304600 0.712400
vn 0.000000 0.961700 -0.273900
vn 0.178700 0.949500 -0.257800
vn 0.457300 0.661600 -0.594300
vn 0.151600 0.685100 -0.712500
vn 0.000000 0.694500 -0.719500
vn 0.939500 0.276000 -0.202600
vn 0.631200 0.737600 -0.239800
vn 0.632200 0.304600 -0.712400
vn 0.135800 0.258300 -0.956500
vn 0.000000 0.256900 -0.966400
vn -0.518300 0.379200 0.766500
vn -0.760100 -0.334600 0.557100
vn 0.000000 0.000000 1.000000
vn -0.636200 0.758800 -0.139300
vn 0.065800 -0.781700 -0.620100
vn -0.644400 -0.475500 -0.598800
vn -0.453800 0.890600 0.029600
vn -0.632300 0.558800 0.536500
vn -0.628500 0.750800 0.203000
vn 0.823600 -0.567000 -0.011300
vn 0.765900 -0.620100 -0.169800
vn 0.188300 -0.633000 -0.750800
vn 0.583200 -0.564000 0.584600
vn 0.795800 -0.588700 0.141400
vn 0.271000 -0.617000 0.738800
vn 0.550700 -0.572800 -0.607100
vn 0.205600 -0.612500 -0.763200
vn -0.656400 0.583200 -0.478600
vn -0.699100 0.236900 -0.674600
vn -0.040600 -0.724400 0.688100
vn 0.151400 -0.726700 0.670000
vn 0.270000 -0.962600 -0.021700
vn 0.266300 -0.962800 -0.045400
vn 0.205300 -0.974100 -0.094300
vn -0.032800 -0.999300 -0.017800
vn -0.918200 -0.382200 -0.103400
vn -0.957000 0.289900 0.010700
vn -0.954000 0.293600 0.060100
usemtl Material.004
s 1
f 13/1/1 21/2/2 9/3/3
f 11/4/4 13/5/1 4/6/5
f 1/7/6 3/8/7 4/6/5
f 4/6/5 9/3/3 8/9/8
f 3/8/7 7/10/9 17/11/10
f 1/7/6 2/12/11 6/13/12
f 8/9/8 10/14/13 6/13/12
f 1/7/6 5/15/14 7/10/9
f 23/16/15 21/2/2 13/1/1
f 16/17/16 13/5/1 11/4/4
f 12/18/17 14/19/18 16/17/16
f 22/20/19 23/16/15 16/21/16
f 17/11/10 20/22/20 15/23/21
f 12/18/17 18/24/22 19/25/23
f 19/26/23 24/27/24 22/20/19
f 20/22/20 18/24/22 12/18/17
f 30/28/25 27/29/26 25/30/27
f 42/31/28 23/16/15 22/20/19
f 24/27/24 26/32/29 29/33/30
f 9/3/3 21/2/2 43/34/31
f 45/35/32 30/28/25 10/14/13
f 43/34/31 21/2/2 23/16/15
f 8/9/8 9/3/3 44/36/33
f 17/11/10 35/37/34 38/38/35
f 24/27/24 32/39/36 26/32/29
f 5/15/14 31/40/37 33/41/38
f 6/13/12 34/42/39 31/40/37
f 38/38/35 37/43/40 18/24/22
f 37/43/40 36/44/41 19/25/23
f 7/10/9 33/41/38 35/37/34
f 4/6/5 13/1/1 9/3/3
f 3/8/7 11/4/4 4/6/5
f 2/12/11 1/7/6 4/6/5
f 2/12/11 4/6/5 8/9/8
f 11/4/4 3/8/7 17/11/10
f 5/15/14 1/7/6 6/13/12
f 2/12/11 8/9/8 6/13/12
f 3/8/7 1/7/6 7/10/9
f 16/21/16 23/16/15 13/1/1
f 15/23/21 16/17/16 11/4/4
f 15/23/21 12/18/17 16/17/16
f 14/45/18 22/20/19 16/21/16
f 11/4/4 17/11/10 15/23/21
f 14/19/18 12/18/17 19/25/23
f 14/45/18 19/26/23 22/20/19
f 15/23/21 20/22/20 12/18/17
f 10/14/13 30/28/25 25/30/27
f 41/46/42 42/31/28 22/20/19
f 28/47/43 24/27/24 29/33/30
f 44/36/33 9/3/3 43/34/31
f 8/9/8 45/35/32 10/14/13
f 42/31/28 43/34/31 23/16/15
f 45/35/32 8/9/8 44/36/33
f 20/22/20 17/11/10 38/38/35
f 32/39/36 24/27/24 19/26/23
f 19/26/23 36/44/41 32/39/36
f 7/10/9 5/15/14 33/41/38
f 5/15/14 6/13/12 31/40/37
f 20/22/20 38/38/35 18/24/22
f 18/24/22 37/43/40 19/25/23
f 17/11/10 7/10/9 35/37/34
usemtl Material.004_NONE
f 24/27/24 28/47/43 41/46/42
f 25/30/27 27/29/26 46/48/44
f 10/14/13 25/30/27 34/42/39
f 40/49/45 34/42/39 25/30/27
f 33/41/38 31/40/37 48/50/46
f 48/50/46 37/43/40 38/38/35
f 31/40/37 34/42/39 49/51/47
f 37/43/40 48/50/46 49/51/47
f 40/49/45 50/52/48 49/51/47
f 49/51/47 50/52/48 32/39/36
f 32/39/36 50/52/48 52/53/49
f 40/49/45 46/48/44 52/53/49
f 39/54/50 52/53/49 46/48/44
f 29/33/30 26/55/29 52/53/49
f 27/29/26 30/28/25 47/56/51
f 29/33/30 39/54/50 47/56/51
f 47/56/51 51/57/52 41/46/42
f 45/35/32 51/57/52 47/56/51
f 51/57/52 45/35/32 44/36/33
f 51/57/52 43/34/31 42/31/28
f 22/20/19 24/27/24 41/46/42
f 6/13/12 10/14/13 34/42/39
f 46/48/44 40/49/45 25/30/27
f 35/37/34 33/41/38 48/50/46
f 35/37/34 48/50/46 38/38/35
f 48/50/46 31/40/37 49/51/47
f 36/44/41 37/43/40 49/51/47
f 34/42/39 40/49/45 49/51/47
f 36/44/41 49/51/47 32/39/36
f 26/55/29 32/39/36 52/53/49
f 50/52/48 40/49/45 52/53/49
f 27/29/26 39/54/50 46/48/44
f 39/54/50 29/33/30 52/53/49
f 39/54/50 27/29/26 47/56/51
f 28/47/43 29/33/30 47/56/51
f 28/47/43 47/56/51 41/46/42
f 30/28/25 45/35/32 47/56/51
f 43/34/31 51/57/52 44/36/33
f 41/46/42 51/57/52 42/31/28
