# Blender v2.75 (sub 0) OBJ File: 'Bricks.blend'
# www.blender.org
mtllib WhiteBrickBreak3.mtl
o OriginalBrick.014_Cube.023
v -0.298261 -0.047594 0.190317
v 0.118621 -0.054381 0.198724
v -0.264838 -0.054381 0.198724
v -0.309301 -0.058187 0.162921
v 0.118621 -0.076581 0.162921
v -0.264838 -0.076581 0.162921
v -0.314158 -0.022197 0.203502
v 0.118621 -0.022581 0.216921
v -0.264838 -0.022581 0.216921
v -0.331379 -0.022581 0.162921
v 0.118621 -0.076581 0.001137
v -0.309301 -0.058187 0.001137
v -0.298261 -0.047594 -0.188044
v 0.118621 -0.054381 -0.196450
v -0.264838 -0.076581 0.001137
v -0.264838 -0.054381 -0.196450
v -0.309301 -0.058187 -0.160647
v 0.118621 -0.076581 -0.160647
v -0.264838 -0.076581 -0.160647
v -0.331379 -0.022581 0.001137
v -0.314158 -0.022197 -0.201228
v 0.118621 -0.022581 -0.214647
v -0.264838 -0.022581 -0.214647
v -0.331379 -0.022581 -0.160647
v -0.314145 0.008152 -0.201172
v -0.264838 0.012569 -0.214647
v -0.331379 0.004556 -0.160647
v -0.331379 0.003266 0.001137
v -0.314144 0.008781 0.203445
v -0.264838 0.021564 0.216921
v -0.331379 0.008931 0.162921
v 0.118621 0.059486 0.216921
v 0.118621 0.045363 -0.214647
v 0.301869 -0.022581 -0.214647
v 0.291496 -0.022581 0.216921
v 0.291496 -0.022581 0.001138
v 0.275963 0.064342 0.216921
v -0.135206 0.103419 -0.214647
v -0.187095 0.103419 0.216921
v 0.301053 -0.076581 0.162921
v 0.314012 -0.076581 0.001137
v 0.323413 -0.076581 -0.160647
v 0.257901 0.103419 -0.214647
v 0.297897 -0.054381 0.198724
v 0.325286 -0.054381 -0.196450
v -0.314144 0.008781 0.001676
v -0.264838 0.021564 0.001676
v 0.118621 0.059486 0.001676
v 0.275963 0.064342 0.001676
v -0.187095 0.103419 0.001676
v 0.297897 -0.054381 0.001138
vt 0.543679 0.422601
vt 0.545579 0.422226
vt 0.544671 0.424619
vt 0.543698 0.422400
vt 0.545342 0.421660
vt 0.543641 0.422224
vt 0.545055 0.421229
vt 0.543440 0.421951
vt 0.543906 0.420314
vt 0.783450 0.633905
vt 0.461607 0.262161
vt 0.452338 0.167152
vt 0.802430 0.303039
vt 0.606729 0.345720
vt 0.601262 0.317505
vt 0.575222 0.337885
vt 0.472180 0.309578
vt 0.620721 0.370846
vt 0.597705 0.374779
vt 0.588417 0.354378
vt 0.543136 0.423234
vt 0.542515 0.425846
vt 0.542570 0.423744
vt 0.541938 0.425708
vt 0.541483 0.425488
vt 0.542193 0.423750
vt 0.540794 0.424655
vt 0.197570 0.363288
vt 0.275722 0.450879
vt 0.197570 0.479473
vt 0.462281 0.678842
vt 0.347404 0.429684
vt 0.296621 0.400431
vt 0.321656 0.477677
vt 0.254269 0.576928
vt 0.389014 0.641241
vt 0.479812 0.330997
vt 0.372826 0.447593
vt 0.579484 0.361256
vt 0.566981 0.351076
vt 0.581157 0.376615
vt 0.357854 0.495393
vt 0.360364 0.619844
vt 0.542408 0.423757
vt 0.541820 0.423575
vt 0.421672 0.659297
vt 0.524290 0.402909
vt 0.551310 0.400449
vt 0.540940 0.421470
vt 0.542479 0.422605
vt 0.526388 0.430392
vt 0.500964 0.372002
vt 0.486107 0.344007
vt 0.542889 0.422991
vt 0.543030 0.423124
vn 0.700400 -0.679300 0.219000
vn 0.000000 -0.961700 0.273900
vn 0.000000 -1.000000 0.000000
vn 0.702800 -0.434200 0.563400
vn 0.000000 -0.694500 0.719500
vn 0.661300 -0.097400 0.743800
vn 0.000000 -0.256900 0.966400
vn 0.510800 0.629600 0.585400
vn 0.038400 0.685400 0.727100
vn -0.194900 -0.980800 0.000000
vn -0.647300 -0.762200 0.000000
vn -0.178700 -0.949500 0.257800
vn -0.457300 -0.661600 0.594300
vn -0.631200 -0.737600 0.239800
vn -0.939500 -0.276000 0.202600
vn -0.961700 -0.274000 0.000000
vn -0.151600 -0.685100 0.712500
vn -0.135700 -0.258400 0.956500
vn -0.632300 -0.304500 0.712400
vn 0.889800 -0.452200 0.061200
vn 0.000000 -0.961700 -0.273900
vn 0.711000 -0.688400 -0.143300
vn 0.000000 -0.694500 -0.719500
vn 0.000000 -0.256900 -0.966400
vn 0.620300 0.025800 -0.783900
vn -0.050100 0.595800 -0.801600
vn -0.178700 -0.949500 -0.257800
vn -0.457300 -0.661600 -0.594300
vn -0.151600 -0.685100 -0.712500
vn -0.939500 -0.276000 -0.202600
vn -0.631200 -0.737600 -0.239800
vn -0.632300 -0.304500 -0.712400
vn -0.135700 -0.258400 -0.956500
vn -0.811400 0.584400 -0.007600
vn -0.800400 0.582200 -0.142300
vn -0.595300 0.543700 0.591600
vn -0.729000 0.668200 0.148500
vn -0.385400 0.498700 0.776300
vn -0.555700 0.584900 -0.590800
vn -0.308100 0.521000 -0.796000
vn 0.792600 -0.228600 -0.565200
vn 0.341900 0.753900 -0.561000
vn 0.142200 0.989800 0.000000
vn -0.384000 0.921400 -0.060100
vn -0.030800 0.999500 0.000000
vn 0.142200 0.989300 0.034100
vn -0.725100 0.688700 0.000000
vn -0.251000 0.968000 0.000000
vn 0.000000 0.000000 -1.000000
vn -0.568600 0.811300 -0.136400
vn -0.251000 0.968000 -0.003000
vn 0.984400 0.175900 0.000000
vn 0.983400 0.175400 0.047300
vn 0.971400 0.195500 0.134700
vn 0.980300 0.197300 0.000000
vn -0.030300 0.983200 0.180100
vn 0.222500 0.972900 -0.063500
vn -0.724800 0.688400 -0.028600
vn -0.100300 0.994100 -0.041300
vn 0.944000 0.329400 -0.019300
vn 0.794100 0.606600 0.038200
vn -0.258200 0.743500 0.616900
vn -0.271100 0.962500 -0.007000
vn 0.923200 0.378800 0.064100
usemtl Material.004
s 1
f 40/1/1 5/2/2 11/3/3
f 44/4/4 2/5/5 5/2/2
f 35/6/6 8/7/7 2/5/5
f 37/8/8 32/9/9 8/7/7
f 15/10/10 11/3/3 5/2/2
f 12/11/11 15/12/10 6/13/12
f 1/14/13 4/15/14 6/13/12
f 6/13/12 5/2/2 2/5/5
f 4/15/14 10/16/15 20/17/16
f 1/14/13 3/18/17 9/19/18
f 2/5/5 8/7/7 9/19/18
f 1/14/13 7/20/19 10/16/15
f 41/21/20 11/3/3 18/22/21
f 42/23/22 18/22/21 14/24/23
f 14/24/23 22/25/24 34/26/25
f 34/26/25 22/25/24 33/27/26
f 18/22/21 11/3/3 15/10/10
f 19/28/27 15/12/10 12/11/11
f 13/29/28 16/30/29 19/28/27
f 14/24/23 18/22/21 19/31/27
f 20/17/16 24/32/30 17/33/31
f 13/29/28 21/34/32 23/35/33
f 23/36/33 22/25/24 14/24/23
f 24/32/30 21/34/32 13/29/28
f 28/37/34 27/38/35 24/32/30
f 7/20/19 29/39/36 31/40/37
f 9/19/18 30/41/38 29/39/36
f 25/42/39 26/43/40 23/35/33
f 27/38/35 25/42/39 21/34/32
f 10/16/15 31/40/37 28/37/34
f 41/21/20 40/1/1 11/3/3
f 40/1/1 44/4/4 5/2/2
f 44/4/4 35/6/6 2/5/5
f 35/6/6 37/8/8 8/7/7
f 6/13/12 15/10/10 5/2/2
f 4/15/14 12/11/11 6/13/12
f 3/18/17 1/14/13 6/13/12
f 3/18/17 6/13/12 2/5/5
f 12/11/11 4/15/14 20/17/16
f 7/20/19 1/14/13 9/19/18
f 3/18/17 2/5/5 9/19/18
f 4/15/14 1/14/13 10/16/15
f 42/23/22 41/21/20 18/22/21
f 45/44/41 42/23/22 14/24/23
f 45/44/41 14/24/23 34/26/25
f 43/45/42 34/26/25 33/27/26
f 19/31/27 18/22/21 15/10/10
f 17/33/31 19/28/27 12/11/11
f 17/33/31 13/29/28 19/28/27
f 16/46/29 14/24/23 19/31/27
f 12/11/11 20/17/16 17/33/31
f 16/30/29 13/29/28 23/35/33
f 16/46/29 23/36/33 14/24/23
f 17/33/31 24/32/30 13/29/28
f 20/17/16 28/37/34 24/32/30
f 10/16/15 7/20/19 31/40/37
f 7/20/19 9/19/18 29/39/36
f 21/34/32 25/42/39 23/35/33
f 24/32/30 27/38/35 21/34/32
f 20/17/16 10/16/15 28/37/34
usemtl Material.004_NONE
s off
f 50/47/43 39/48/43 32/9/43
f 43/45/44 33/27/44 48/49/44
f 37/8/45 49/50/45 48/49/45
f 38/51/46 50/47/46 48/49/46
f 39/48/47 50/47/47 47/52/47
f 29/39/48 30/41/48 47/52/48
f 33/27/49 26/43/49 38/51/49
f 50/47/50 38/51/50 26/43/50
f 25/42/51 46/53/51 47/52/51
f 35/6/52 36/54/52 49/50/52
f 49/50/53 36/54/53 34/26/53
f 36/54/54 51/55/54 45/44/54
f 36/54/55 35/6/55 44/4/55
f 48/49/43 50/47/43 32/9/43
f 49/50/56 43/45/56 48/49/56
f 32/9/45 37/8/45 48/49/45
f 33/27/57 38/51/57 48/49/57
f 30/41/47 39/48/47 47/52/47
f 46/53/48 29/39/48 47/52/48
f 47/52/58 50/47/58 26/43/58
f 26/43/59 25/42/59 47/52/59
f 37/8/52 35/6/52 49/50/52
f 43/45/60 49/50/60 34/26/60
f 34/26/61 36/54/61 45/44/61
f 51/55/55 36/54/55 44/4/55
s 1
f 8/7/7 32/9/9 30/41/38
f 22/25/24 23/36/33 26/43/40
f 30/41/38 32/9/9 39/48/62
f 46/53/63 25/42/39 27/38/35
f 31/40/37 29/39/36 46/53/63
f 42/23/22 45/44/41 51/55/64
f 51/55/64 44/4/4 40/1/1
f 9/19/18 8/7/7 30/41/38
f 33/27/26 22/25/24 26/43/40
f 28/37/34 46/53/63 27/38/35
f 28/37/34 31/40/37 46/53/63
f 41/21/20 42/23/22 51/55/64
f 41/21/20 51/55/64 40/1/1
