# Blender v2.75 (sub 0) OBJ File: 'Bricks.blend'
# www.blender.org
mtllib WhiteBrickBreak2.mtl
o OriginalBrick.007_Cube.006
v -0.076453 0.126493 0.202015
v -0.076453 0.148693 0.166211
v -0.076453 0.094693 0.220211
v -0.076453 0.148693 0.004427
v -0.076453 0.126493 -0.193160
v -0.076453 0.148693 -0.157356
v -0.076453 0.094693 -0.211356
v 0.356270 -0.031307 0.206559
v 0.307006 -0.031307 0.220211
v 0.373547 -0.031307 0.166211
v -0.076453 -0.031307 0.220211
v 0.373547 -0.031307 0.004427
v 0.356270 -0.031307 -0.197704
v 0.307006 -0.031307 -0.211356
v 0.373547 -0.031307 -0.157356
v -0.076453 -0.031307 -0.211356
v 0.152080 0.094693 -0.211356
v 0.166909 0.094693 0.220211
v -0.331304 -0.157307 0.220211
v -0.379340 -0.157307 -0.211356
v -0.261160 0.094693 -0.211356
v -0.321785 -0.031307 -0.211356
v -0.277099 -0.031307 0.220211
v -0.255047 0.094693 0.220211
v -0.257825 0.126493 -0.193160
v -0.257977 0.126493 0.202015
v -0.257977 0.148693 0.166211
v -0.253344 0.148693 -0.157356
v -0.247394 0.148693 0.004427
v -0.076453 -0.077570 0.220211
v 0.307006 -0.077527 0.220211
v 0.373547 -0.080079 0.166211
v 0.373547 -0.107594 0.004427
v 0.307006 -0.086980 -0.211356
v -0.076453 -0.088311 -0.211356
v 0.373547 -0.109228 -0.157356
v 0.356290 -0.076008 0.206642
v 0.356302 -0.104362 -0.197840
v 0.180900 0.148693 -0.157356
v 0.107678 0.148693 0.004427
v 0.184250 0.126493 -0.193160
v 0.373547 0.048960 -0.157356
v 0.356291 0.017002 -0.197794
v 0.307006 0.041733 -0.211356
v 0.125569 0.148693 0.166211
v 0.143057 0.126493 0.202015
v 0.307006 0.048467 0.220211
v 0.373547 0.044225 0.166211
v 0.373547 0.023167 0.004427
v 0.356305 0.048362 0.206707
v -0.355322 -0.157307 0.004427
v -0.299442 -0.031307 0.004427
v -0.258104 0.094693 0.004427
v -0.257901 0.126493 0.004427
v -0.255660 0.148693 0.004427
v -0.076453 -0.094633 0.004591
v 0.307006 -0.094590 0.004591
v 0.356290 -0.093071 0.004591
vt 0.564190 0.654850
vt 0.497063 0.656145
vt 0.498352 0.561696
vt 0.518543 0.560654
vt 0.498691 0.536867
vt 0.527661 0.535105
vt 0.498984 0.515399
vt 0.755084 0.479694
vt 0.734579 0.479871
vt 0.734742 0.443967
vt 0.540515 0.513275
vt 0.500002 0.440769
vt 0.710510 0.482181
vt 0.708811 0.443615
vt 0.840721 0.477208
vt 0.756687 0.444264
vt 0.392059 0.651249
vt 0.389469 0.553088
vt 0.400184 0.507637
vt 0.390742 0.439276
vt 0.495722 0.754363
vt 0.495366 0.780443
vt 0.655356 0.753857
vt 0.637282 0.802883
vt 0.495056 0.803167
vt 0.935351 0.446668
vt 0.962999 0.447038
vt 0.959519 0.475166
vt 0.733787 0.881463
vt 0.493987 0.881463
vt 0.999906 0.447531
vt 0.842574 0.445423
vt 0.386049 0.751019
vt 0.382712 0.777092
vt 0.380155 0.799799
vt 0.710402 0.421305
vt 0.756271 0.421368
vt 0.500376 0.413367
vt 0.744723 0.041430
vt 0.505534 0.035514
vt 0.506017 0.000095
vt 0.841178 0.400859
vt 0.933147 0.402220
vt 0.735197 0.423827
vt 0.352606 0.000094
vt 0.958875 0.404379
vt 0.993738 0.408805
vt 0.395966 0.527800
vt 0.657366 0.780050
vt 0.931857 0.492380
vt 0.733736 0.835800
vt 0.990461 0.498107
vt 0.340623 0.877273
vt 0.359788 0.373359
vt 0.745712 0.006641
vt 0.316461 0.078761
vt 0.000000 0.000000
vt 0.158230 0.039380
vt 0.195371 0.219638
vt 0.365683 0.658275
vt 0.200092 0.253819
vt 0.390169 0.653718
vt 0.389339 0.652446
vt 0.194735 0.276544
vt 0.197983 0.263900
vn 0.182500 0.982800 0.025300
vn 0.000000 1.000000 0.000000
vn 0.000000 0.961700 0.273900
vn 0.183300 0.957800 0.221500
vn 0.000000 0.694500 0.719500
vn 0.157600 0.748700 0.643800
vn 0.000000 0.256900 0.966400
vn 0.835600 0.536400 0.118300
vn 0.610000 0.507400 0.608500
vn 0.658400 0.000200 0.752600
vn 0.079900 0.325800 0.942000
vn 0.000000 0.000000 1.000000
vn 0.169200 0.288900 0.942300
vn 0.134300 -0.000100 0.990900
vn 0.866000 0.499600 0.018300
vn 0.979600 0.000100 0.200800
vn -0.650700 0.730400 0.207500
vn -0.610200 0.235800 0.756300
vn -0.621800 0.201100 0.756900
vn 0.000000 0.961700 -0.273900
vn 0.000000 0.694500 -0.719500
vn 0.243900 0.949300 -0.198100
vn 0.025000 0.261100 -0.965000
vn 0.000000 0.256900 -0.966400
vn 0.979600 0.000000 -0.200600
vn 0.658100 -0.000300 -0.752900
vn 0.625600 0.224900 -0.746900
vn 0.134500 -0.000200 -0.990900
vn 0.000000 0.000000 -1.000000
vn 1.000000 0.000000 0.000000
vn -0.572500 0.794900 -0.200900
vn -0.632400 0.569100 -0.525400
vn -0.580400 0.337900 -0.740900
vn 0.108900 -0.653600 0.748900
vn 0.714900 -0.669600 0.201200
vn 0.096000 -0.633200 0.768000
vn 0.019300 -0.624500 -0.780800
vn 0.074500 -0.665600 -0.742500
vn 0.406400 -0.910300 0.078600
vn 0.584400 -0.799200 -0.140100
vn 0.529100 -0.580100 0.619300
vn -0.672800 0.313600 -0.670100
vn 0.389900 -0.691700 -0.607900
vn -0.675600 0.490400 0.550400
vn 0.186600 0.684900 -0.704300
vn 0.800600 0.543800 -0.251600
vn 0.333200 0.450800 -0.828100
vn -0.590900 -0.552400 0.588000
vn -0.682900 -0.514800 -0.518300
vn -0.767800 -0.635300 0.081900
vn -0.926000 0.368100 0.083200
vn -0.988600 0.148800 0.021600
vn -0.998500 0.053400 -0.006700
vn -0.670600 0.741800 -0.009600
vn -0.312800 -0.946800 0.075200
vn 0.002600 -0.999100 0.042700
vn 0.122500 -0.992400 0.013500
usemtl Material.004
s 1
f 40/1/1 4/2/2 2/3/3
f 45/4/4 2/3/3 1/5/5
f 46/6/6 1/5/5 3/7/7
f 48/8/8 50/9/9 8/10/10
f 18/11/11 3/7/7 11/12/12
f 50/9/9 47/13/13 9/14/14
f 49/15/15 48/8/8 10/16/16
f 2/3/3 4/2/2 29/17/2
f 1/5/5 2/3/3 27/18/17
f 24/19/18 3/7/7 1/5/5
f 24/19/18 23/20/19 11/12/12
f 6/21/20 4/2/2 40/1/1
f 5/22/21 6/21/20 39/23/22
f 17/24/23 7/25/24 5/22/21
f 15/26/25 13/27/26 43/28/27
f 17/24/23 14/29/28 16/30/29
f 43/28/27 13/27/26 14/31/28
f 49/15/15 12/32/30 15/26/25
f 29/17/2 4/2/2 6/21/20
f 28/33/31 6/21/20 5/22/21
f 25/34/32 5/22/21 7/25/24
f 21/35/33 7/25/24 16/30/29
f 31/36/34 9/14/14 11/12/12
f 12/32/30 10/16/16 32/37/35
f 30/38/36 11/12/12 23/20/19
f 34/39/37 35/40/38 16/41/29
f 33/42/39 36/43/40 15/26/25
f 10/16/16 8/10/10 37/44/41
f 37/44/41 8/10/10 9/14/14
f 22/45/42 16/41/29 35/40/38
f 38/46/43 13/27/26 15/26/25
f 34/47/37 14/31/28 13/27/26
f 45/4/4 40/1/1 2/3/3
f 46/6/6 45/4/4 1/5/5
f 18/11/11 46/6/6 3/7/7
f 10/16/16 48/8/8 8/10/10
f 9/14/14 47/13/13 18/11/11
f 18/11/11 11/12/12 9/14/14
f 8/10/10 50/9/9 9/14/14
f 12/32/30 49/15/15 10/16/16
f 27/18/17 2/3/3 29/17/2
f 26/48/44 1/5/5 27/18/17
f 26/48/44 24/19/18 1/5/5
f 3/7/7 24/19/18 11/12/12
f 39/23/22 6/21/20 40/1/1
f 41/49/45 5/22/21 39/23/22
f 41/49/45 17/24/23 5/22/21
f 42/50/46 15/26/25 43/28/27
f 14/29/28 17/24/23 44/51/47
f 17/24/23 16/30/29 7/25/24
f 44/52/47 43/28/27 14/31/28
f 42/50/46 49/15/15 15/26/25
f 28/33/31 29/17/2 6/21/20
f 25/34/32 28/33/31 5/22/21
f 21/35/33 25/34/32 7/25/24
f 22/53/42 21/35/33 16/30/29
f 30/38/36 31/36/34 11/12/12
f 33/42/39 12/32/30 32/37/35
f 19/54/48 30/38/36 23/20/19
f 14/55/28 34/39/37 16/41/29
f 12/32/30 33/42/39 15/26/25
f 32/37/35 10/16/16 37/44/41
f 31/36/34 37/44/41 9/14/14
f 20/56/49 22/45/42 35/40/38
f 36/43/40 38/46/43 15/26/25
f 38/46/43 34/47/37 13/27/26
usemtl Material.004_NONE
f 47/9/13 50/57/9 46/11/6
f 46/6/6 50/57/9 48/8/8
f 49/15/15 40/57/1 45/4/4
f 39/57/22 40/1/1 49/15/15
f 42/50/46 43/28/27 41/57/45
f 41/49/45 43/28/27 44/52/47
f 51/58/50 52/59/51 22/57/42
f 52/60/51 53/61/52 21/57/33
f 53/62/52 24/19/18 26/48/44
f 54/63/53 55/64/54 28/57/31
f 27/18/17 55/64/54 54/63/53
f 25/57/32 21/35/33 53/62/52
f 23/20/19 24/19/18 53/61/52
f 19/57/48 23/20/19 52/59/51
f 55/18/54 27/17/17 29/33/2
f 32/44/35 37/57/41 58/57/55
f 58/57/55 38/43/43 36/42/40
f 38/57/43 58/57/55 57/57/56
f 37/57/41 31/36/34 57/57/56
f 57/36/56 31/38/34 30/57/36
f 57/57/56 56/57/57 35/39/38
f 19/54/48 51/58/50 56/57/57
f 35/57/38 56/58/57 51/56/50
f 18/13/11 47/9/13 46/11/6
f 45/57/4 46/6/6 48/8/8
f 48/8/8 49/15/15 45/4/4
f 42/50/46 39/57/22 49/15/15
f 39/23/22 42/50/46 41/57/45
f 17/24/23 41/49/45 44/52/47
f 20/56/49 51/58/50 22/57/42
f 22/53/42 52/60/51 21/57/33
f 54/65/53 53/62/52 26/48/44
f 25/34/32 54/63/53 28/57/31
f 26/48/44 27/18/17 54/63/53
f 54/65/53 25/57/32 53/62/52
f 52/60/51 23/20/19 53/61/52
f 51/58/50 19/57/48 52/59/51
f 28/64/31 55/18/54 29/33/2
f 33/37/39 32/44/35 58/57/55
f 33/57/39 58/57/55 36/42/40
f 34/46/37 38/57/43 57/57/56
f 58/57/55 37/57/41 57/57/56
f 56/57/57 57/36/56 30/57/36
f 34/57/37 57/57/56 35/39/38
f 30/57/36 19/54/48 56/57/57
f 20/40/49 35/57/38 51/56/50
