# Blender v2.75 (sub 0) OBJ File: 'Bricks.blend'
# www.blender.org
mtllib WhiteBrickBreak4.mtl
o OriginalBrick.008_Cube.013
v 0.077313 0.020219 0.190058
v 0.043891 0.027006 0.198465
v 0.088353 0.030812 0.162661
v 0.043891 0.049206 0.162661
v 0.093210 -0.005178 0.203243
v 0.043891 -0.004794 0.216661
v 0.110431 -0.004794 0.162661
v 0.088353 0.030812 0.000878
v 0.077313 0.020219 -0.188303
v 0.043891 0.049206 0.000878
v 0.043891 0.027006 -0.196710
v 0.088353 0.030812 -0.160906
v 0.043891 0.049206 -0.160906
v 0.110431 -0.004794 0.000878
v 0.093210 -0.005178 -0.201488
v 0.043891 -0.004794 -0.214906
v 0.110431 -0.004794 -0.160906
v 0.110431 -0.050527 -0.160906
v -0.082215 0.049206 -0.160906
v 0.093190 -0.051125 0.203158
v -0.120059 0.027006 0.198465
v -0.137547 0.049206 0.162661
v 0.043891 -0.051020 0.216661
v 0.093176 -0.082485 -0.201344
v 0.110431 -0.055262 0.162661
v -0.078865 0.027006 -0.196710
v -0.155437 0.049206 0.000878
v 0.043891 -0.057754 -0.214906
v 0.110431 -0.076320 0.000878
v -0.111035 -0.004794 -0.214906
v -0.096206 -0.004794 0.216661
v 0.093190 -0.051125 -0.000733
v -0.120059 0.027006 -0.000733
v 0.043891 -0.051020 -0.000733
v -0.096206 -0.004794 -0.000733
vt 0.835737 0.544092
vt 0.832410 0.574334
vt 0.728776 0.549797
vt 0.733409 0.516110
vt 0.747921 0.523504
vt 0.754013 0.503366
vt 0.838288 0.518944
vt 0.716137 0.523643
vt 0.711494 0.504530
vt 0.734485 0.500579
vt 0.939579 0.572784
vt 0.950008 0.538976
vt 0.966270 0.556108
vt 0.929866 0.518425
vt 0.931317 0.541897
vt 0.953950 0.520177
vt 0.983612 0.534778
vt 0.655356 0.753857
vt 0.564190 0.654850
vt 0.732824 0.651596
vt 0.733699 0.802691
vt 0.637282 0.802883
vt 0.657366 0.780050
vt 0.931857 0.492380
vt 0.959519 0.475166
vt 0.990461 0.498107
vt 0.518543 0.560654
vt 0.527661 0.535105
vt 0.540515 0.513275
vt 0.710510 0.482181
vt 0.755084 0.479694
vt 0.733578 0.753608
vt 0.733736 0.835800
vt 0.840721 0.477208
vt 0.734579 0.479871
vt 0.733646 0.779865
vt 0.000000 0.000000
vn 0.647300 0.762200 0.000000
vn 0.194900 0.980800 0.000000
vn 0.178700 0.949500 0.257800
vn 0.457300 0.661600 0.594300
vn 0.631200 0.737600 0.239800
vn 0.939500 0.275900 0.202700
vn 0.961700 0.274000 0.000000
vn 0.151600 0.685100 0.712500
vn 0.135500 0.258500 0.956400
vn 0.632500 0.304700 0.712100
vn 0.178700 0.949500 -0.257800
vn 0.457300 0.661600 -0.594300
vn 0.151600 0.685100 -0.712500
vn 0.939500 0.276000 -0.202600
vn 0.631200 0.737600 -0.239800
vn 0.632400 0.304800 -0.712100
vn 0.135500 0.258500 -0.956400
vn -0.549600 0.780900 -0.296800
vn -0.961100 0.244100 -0.129100
vn -0.793500 -0.126900 -0.595100
vn -0.382800 0.730000 -0.566100
vn 0.973300 -0.155500 -0.168700
vn 0.367600 -0.756300 -0.541200
vn -0.139000 -0.645600 -0.750900
vn -0.846900 0.454000 0.276900
vn -0.732400 0.189300 0.654000
vn -0.497700 -0.393100 0.773100
vn -0.020500 -0.710400 0.703500
vn 0.644900 -0.745900 0.166500
vn 0.298200 -0.946700 0.121900
vn 0.509800 -0.619000 0.597400
vn -0.690800 -0.716600 -0.096100
vn -0.607500 -0.793600 -0.032500
vn -0.179200 -0.982900 0.041800
vn -0.448000 -0.889700 0.087400
usemtl Material.004
s 1
f 8/1/1 10/2/2 4/3/3
f 1/4/4 3/5/5 4/3/3
f 3/5/5 7/6/6 14/7/7
f 1/4/4 2/8/8 6/9/9
f 1/4/4 5/10/10 7/6/6
f 13/11/11 10/2/2 8/1/1
f 9/12/12 11/13/13 13/11/11
f 14/7/7 17/14/14 12/15/15
f 9/12/12 15/16/16 16/17/17
f 17/14/14 15/16/16 9/12/12
f 19/18/18 27/19/19 10/20/2
f 16/21/17 30/22/20 26/23/21
f 18/24/22 24/25/23 15/16/16
f 15/16/16 24/25/23 28/26/24
f 4/3/3 22/27/25 21/28/26
f 6/9/9 31/29/27 23/30/28
f 14/7/7 7/6/6 25/31/29
f 26/23/21 19/18/18 13/32/11
f 16/21/17 28/33/24 30/22/20
f 14/7/7 29/34/30 18/24/22
f 10/20/2 27/19/19 22/27/25
f 2/8/8 21/28/26 31/29/27
f 7/6/6 5/10/10 20/35/31
f 5/10/10 6/9/9 23/30/28
f 3/5/5 8/1/1 4/3/3
f 2/8/8 1/4/4 4/3/3
f 8/1/1 3/5/5 14/7/7
f 5/10/10 1/4/4 6/9/9
f 3/5/5 1/4/4 7/6/6
f 12/15/15 13/11/11 8/1/1
f 12/15/15 9/12/12 13/11/11
f 8/1/1 14/7/7 12/15/15
f 11/13/13 9/12/12 16/17/17
f 12/15/15 17/14/14 9/12/12
f 13/32/11 19/18/18 10/20/2
f 11/36/13 16/21/17 26/23/21
f 17/14/14 18/24/22 15/16/16
f 16/17/17 15/16/16 28/26/24
f 2/8/8 4/3/3 21/28/26
f 29/34/30 14/7/7 25/31/29
f 11/36/13 26/23/21 13/32/11
f 17/14/14 14/7/7 18/24/22
f 4/3/3 10/20/2 22/27/25
f 6/9/9 2/8/8 31/29/27
f 25/31/29 7/6/6 20/35/31
f 20/35/31 5/10/10 23/30/28
usemtl Material.004_NONE
f 22/27/25 27/19/19 33/37/32
f 21/28/26 33/37/32 35/37/33
f 31/29/27 35/37/33 34/37/34
f 20/30/31 23/37/28 34/37/34
f 25/31/29 20/35/31 32/37/35
f 24/37/23 18/24/22 29/34/30
f 24/37/23 32/37/35 34/37/34
f 28/37/24 34/37/34 35/37/33
f 35/37/33 33/37/32 26/22/21
f 19/18/18 26/23/21 33/37/32
f 21/37/26 22/27/25 33/37/32
f 31/37/27 21/28/26 35/37/33
f 23/37/28 31/29/27 34/37/34
f 32/37/35 20/30/31 34/37/34
f 29/37/30 25/31/29 32/37/35
f 32/37/35 24/37/23 29/34/30
f 28/25/24 24/37/23 34/37/34
f 30/33/20 28/37/24 35/37/33
f 30/37/20 35/37/33 26/22/21
f 27/19/19 19/18/18 33/37/32
