# Blender v2.75 (sub 0) OBJ File: 'Background.blend'
# www.blender.org
mtllib Halfpipe.mtl
o Cylinder
v 0.195090 -2.908792 -0.980785
v 0.195090 2.908792 -0.980785
v 0.000000 2.908792 -1.000000
v 0.382683 -2.908792 -0.923880
v 0.382683 2.908792 -0.923880
v 0.555570 -2.908792 -0.831470
v 0.555570 2.908792 -0.831470
v 0.707107 -2.908792 -0.707107
v 0.707107 2.908792 -0.707107
v 0.831470 -2.908792 -0.555570
v 0.831470 2.908792 -0.555570
v 0.923880 -2.908792 -0.382683
v 0.923880 2.908792 -0.382683
v 0.980785 -2.908792 -0.195090
v 0.980785 2.908792 -0.195090
v 1.000000 -2.908792 -0.000000
v 1.000000 2.908792 0.000000
v -0.980785 -2.908792 -0.195091
v -0.980785 2.908792 -0.195091
v -1.000000 2.908792 -0.000001
v -0.923879 -2.908792 -0.382684
v -0.923879 2.908792 -0.382684
v -0.831469 -2.908792 -0.555571
v -0.831469 2.908792 -0.555571
v -0.707106 -2.908792 -0.707108
v -0.707106 2.908792 -0.707108
v -0.555569 -2.908792 -0.831470
v -0.555569 2.908792 -0.831470
v -0.382682 -2.908792 -0.923880
v -0.382682 2.908792 -0.923880
v 0.000000 -2.908792 -1.000000
v -0.195089 2.908792 -0.980786
v -0.195089 -2.908792 -0.980787
v -1.000000 -2.908792 -0.000001
vt 0.572383 0.000045
vt 0.572387 1.000008
vt 0.515062 1.000008
vt 0.629704 0.000045
vt 0.629712 1.000008
vt 0.687026 0.000045
vt 0.687036 1.000008
vt 0.744348 0.000044
vt 0.744361 1.000008
vt 0.801670 0.000044
vt 0.801686 1.000007
vt 0.858992 0.000044
vt 0.859011 1.000007
vt 0.916314 0.000043
vt 0.916335 1.000006
vt 0.973636 0.000043
vt 0.973661 1.000006
vt 0.113808 0.000043
vt 0.113788 1.000007
vt 0.056463 1.000007
vt 0.171130 0.000044
vt 0.171113 1.000008
vt 0.228452 0.000044
vt 0.228437 1.000008
vt 0.285774 0.000044
vt 0.285762 1.000008
vt 0.343096 0.000045
vt 0.343087 1.000008
vt 0.400418 0.000045
vt 0.400412 1.000008
vt 0.515061 0.000045
vt 0.457737 1.000008
vt 0.457739 0.000045
vt 0.056486 0.000043
vn -0.098000 -0.000000 0.995200
vn -0.290300 -0.000000 0.956900
vn -0.471400 -0.000000 0.881900
vn -0.634400 -0.000000 0.773000
vn -0.773000 -0.000000 0.634400
vn -0.881900 -0.000000 0.471400
vn -0.956900 -0.000000 0.290300
vn -0.995200 -0.000000 0.098000
vn 0.995200 -0.000000 0.098000
vn 0.956900 -0.000000 0.290300
vn 0.881900 -0.000000 0.471400
vn 0.773000 -0.000000 0.634400
vn 0.634400 -0.000000 0.773000
vn 0.471400 -0.000000 0.881900
vn 0.098000 -0.000000 0.995200
vn 0.290300 -0.000000 0.956900
usemtl Material.001
s 1
f 1/1/1 2/2/1 3/3/1
f 4/4/2 5/5/2 2/2/2
f 6/6/3 7/7/3 5/5/3
f 8/8/4 9/9/4 7/7/4
f 10/10/5 11/11/5 9/9/5
f 12/12/6 13/13/6 11/11/6
f 14/14/7 15/15/7 13/13/7
f 16/16/8 17/17/8 15/15/8
f 18/18/9 19/19/9 20/20/9
f 21/21/10 22/22/10 19/19/10
f 23/23/11 24/24/11 22/22/11
f 25/25/12 26/26/12 24/24/12
f 27/27/13 28/28/13 26/26/13
f 29/29/14 30/30/14 28/28/14
f 31/31/15 3/3/15 32/32/15
f 33/33/16 32/32/16 30/30/16
f 31/31/1 1/1/1 3/3/1
f 1/1/2 4/4/2 2/2/2
f 4/4/3 6/6/3 5/5/3
f 6/6/4 8/8/4 7/7/4
f 8/8/5 10/10/5 9/9/5
f 10/10/6 12/12/6 11/11/6
f 12/12/7 14/14/7 13/13/7
f 14/14/8 16/16/8 15/15/8
f 34/34/9 18/18/9 20/20/9
f 18/18/10 21/21/10 19/19/10
f 21/21/11 23/23/11 22/22/11
f 23/23/12 25/25/12 24/24/12
f 25/25/13 27/27/13 26/26/13
f 27/27/14 29/29/14 28/28/14
f 33/33/15 31/31/15 32/32/15
f 29/29/16 33/33/16 30/30/16
