# Blender v2.75 (sub 0) OBJ File: ''
# www.blender.org
mtllib Halfpipe.mtl
o Cylinder
v 0.000000 -2.908792 -1.000000
v 0.000000 2.908792 -1.000000
v 0.195090 -2.908792 -0.980785
v 0.195090 2.908792 -0.980785
v 0.382683 -2.908792 -0.923880
v 0.382683 2.908792 -0.923880
v 0.555570 -2.908792 -0.831470
v 0.555570 2.908792 -0.831470
v 0.707107 -2.908792 -0.707107
v 0.707107 2.908792 -0.707107
v 0.831470 -2.908792 -0.555570
v 0.831470 2.908792 -0.555570
v 0.923880 -2.908792 -0.382683
v 0.923880 2.908792 -0.382683
v 0.980785 -2.908792 -0.195090
v 0.980785 2.908792 -0.195090
v 1.000000 -2.908792 -0.000000
v 1.000000 2.908792 -0.000000
v -1.000000 -2.908792 -0.000001
v -1.000000 2.908792 -0.000001
v -0.980785 -2.908792 -0.195091
v -0.980785 2.908792 -0.195091
v -0.923879 -2.908792 -0.382684
v -0.923879 2.908792 -0.382684
v -0.831469 -2.908792 -0.555571
v -0.831469 2.908792 -0.555571
v -0.707106 -2.908792 -0.707108
v -0.707106 2.908792 -0.707108
v -0.555569 -2.908792 -0.831470
v -0.555569 2.908792 -0.831470
v -0.382682 -2.908792 -0.923880
v -0.382682 2.908792 -0.923880
v -0.195089 -2.908792 -0.980786
v -0.195089 2.908792 -0.980786
vt -1.156714 -1.419990
vt -1.158346 2.336063
vt -1.031779 2.336118
vt -1.283288 -1.420045
vt -1.284913 2.336008
vt -1.409862 -1.420100
vt -1.411480 2.335954
vt -1.536436 -1.420155
vt -1.538048 2.335899
vt 2.387354 -1.418355
vt 2.385534 2.337692
vt 2.512101 2.337753
vt 2.260782 -1.418416
vt 2.258967 2.337631
vt 2.134208 -1.418478
vt 2.132400 2.337570
vt 2.007634 -1.418538
vt 2.005832 2.337510
vt -0.144122 -1.419541
vt -0.145809 2.336510
vt -0.019241 2.336567
vt -0.270696 -1.419598
vt -0.272376 2.336454
vt -0.397270 -1.419654
vt -0.398943 2.336397
vt -0.523844 -1.419711
vt -0.525511 2.336341
vt -0.650418 -1.419767
vt -0.652078 2.336285
vt -0.776992 -1.419823
vt -0.778645 2.336229
vt -1.030140 -1.419935
vt -0.905212 2.336174
vt -0.903566 -1.419879
vt 2.513929 -1.418293
vt -0.017548 -1.419484
vn -0.098000 0.000000 0.995200
vn -0.290300 0.000000 0.956900
vn -0.471400 0.000000 0.881900
vn -0.634400 0.000000 0.773000
vn -0.773000 0.000000 0.634400
vn -0.881900 0.000000 0.471400
vn -0.956900 0.000000 0.290300
vn -0.995200 0.000000 0.098000
vn 0.995200 0.000000 0.098000
vn 0.956900 0.000000 0.290300
vn 0.881900 0.000000 0.471400
vn 0.773000 0.000000 0.634400
vn 0.634400 0.000000 0.773000
vn 0.471400 0.000000 0.881900
vn 0.098000 0.000000 0.995200
vn 0.290300 0.000000 0.956900
usemtl Material.001
s off
f 3/1/1 4/2/1 2/3/1
f 5/4/2 6/5/2 4/2/2
f 7/6/3 8/7/3 6/5/3
f 9/8/4 10/9/4 8/7/4
f 11/10/5 12/11/5 10/12/5
f 13/13/6 14/14/6 12/11/6
f 15/15/7 16/16/7 14/14/7
f 17/17/8 18/18/8 16/16/8
f 21/19/9 22/20/9 20/21/9
f 23/22/10 24/23/10 22/20/10
f 25/24/11 26/25/11 24/23/11
f 27/26/12 28/27/12 26/25/12
f 29/28/13 30/29/13 28/27/13
f 31/30/14 32/31/14 30/29/14
f 1/32/15 2/3/15 34/33/15
f 33/34/16 34/33/16 32/31/16
f 1/32/1 3/1/1 2/3/1
f 3/1/2 5/4/2 4/2/2
f 5/4/3 7/6/3 6/5/3
f 7/6/4 9/8/4 8/7/4
f 9/35/5 11/10/5 10/12/5
f 11/10/6 13/13/6 12/11/6
f 13/13/7 15/15/7 14/14/7
f 15/15/8 17/17/8 16/16/8
f 19/36/9 21/19/9 20/21/9
f 21/19/10 23/22/10 22/20/10
f 23/22/11 25/24/11 24/23/11
f 25/24/12 27/26/12 26/25/12
f 27/26/13 29/28/13 28/27/13
f 29/28/14 31/30/14 30/29/14
f 33/34/15 1/32/15 34/33/15
f 31/30/16 33/34/16 32/31/16
