# Blender v2.75 (sub 0) OBJ File: ''
# www.blender.org
mtllib Brick.mtl
o Cube
v 0.500000 -0.500000 -0.500000
v 0.500000 -0.500000 0.500000
v -0.500000 -0.500000 0.500000
v -0.500000 -0.500000 -0.500000
v 0.500000 0.500000 -0.499999
v 0.499999 0.500000 0.500000
v -0.500000 0.500000 0.500000
v -0.500000 0.500000 -0.500000
vt 0.566439 0.503009
vt 0.567048 0.728848
vt 0.341210 0.729457
vt 0.339992 0.277781
vt 0.339383 0.051943
vt 0.565221 0.051334
vt 0.793495 0.954077
vt 0.567657 0.954686
vt 0.341819 0.955295
vt 0.115981 0.955904
vt 0.115372 0.730066
vt 0.340601 0.503618
vt 0.565830 0.277172
vt 0.792886 0.728239
vn 0.000000 -1.000000 0.000000
vn 0.000000 1.000000 0.000000
vn 1.000000 0.000000 0.000000
vn -0.000000 0.000000 1.000000
vn -1.000000 -0.000000 -0.000000
vn 0.000000 0.000000 -1.000000
usemtl Material
s off
f 1/1/1 2/2/1 3/3/1
f 8/4/2 7/5/2 6/6/2
f 5/7/3 6/8/3 2/2/3
f 6/8/4 7/9/4 3/3/4
f 7/9/5 8/10/5 4/11/5
f 1/1/6 4/12/6 8/4/6
f 4/12/1 1/1/1 3/3/1
f 5/13/2 8/4/2 6/6/2
f 1/14/3 5/7/3 2/2/3
f 2/2/4 6/8/4 3/3/4
f 3/3/5 7/9/5 4/11/5
f 5/13/6 1/1/6 8/4/6
