# Blender v2.75 (sub 0) OBJ File: 'Bricks.blend'
# www.blender.org
mtllib WhiteBrickBreak2.mtl
o OriginalBrick.004_Cube.007
v -0.075970 0.186795 0.202037
v -0.075970 0.208995 0.166233
v -0.075970 0.154995 0.220233
v -0.075970 0.208995 0.004450
v -0.075970 0.186795 -0.193138
v -0.075970 0.208995 -0.157334
v -0.075970 0.154995 -0.211334
v 0.340912 -0.122018 0.193630
v 0.307489 -0.128805 0.202037
v 0.351952 -0.132611 0.166233
v 0.307489 -0.151005 0.166233
v 0.356809 -0.096621 0.206815
v 0.307489 -0.097005 0.220233
v 0.374030 -0.097005 0.166233
v -0.075970 -0.128805 0.202037
v -0.075970 -0.151005 0.166233
v -0.075970 -0.097005 0.220233
v -0.075970 0.028995 0.220233
v 0.351952 -0.132611 0.004450
v 0.340912 -0.122018 -0.184731
v 0.307489 -0.151005 0.004450
v 0.307489 -0.128805 -0.193138
v 0.351952 -0.132611 -0.157334
v 0.307489 -0.151005 -0.157334
v 0.374030 -0.097005 0.004450
v 0.356809 -0.096621 -0.197916
v 0.307489 -0.097005 -0.211334
v 0.374030 -0.097005 -0.157334
v -0.075970 -0.151005 0.004450
v -0.075970 -0.128805 -0.193138
v -0.075970 -0.151005 -0.157334
v -0.075970 -0.097005 -0.211334
v -0.075970 0.028995 -0.211334
v 0.120585 0.154995 -0.211334
v 0.307489 -0.059361 0.220233
v 0.129529 0.028995 -0.211334
v 0.307489 -0.049673 -0.211334
v 0.374030 -0.057088 0.166233
v 0.374030 -0.072357 -0.157334
v 0.097946 0.154995 0.220233
v 0.374030 -0.053559 0.004450
v 0.121317 0.028995 0.220233
v 0.356791 -0.057113 0.206741
v 0.356798 -0.071896 -0.197870
v -0.259409 0.028995 -0.211334
v -0.290153 -0.097005 0.220233
v -0.301303 -0.097005 -0.211334
v -0.196387 0.154995 0.220233
v -0.267743 0.154995 -0.211334
v -0.228801 0.028995 0.220233
v 0.124700 0.186795 -0.193138
v 0.125494 0.208995 -0.157334
v 0.082275 0.208995 0.004450
v 0.100064 0.208995 0.166233
v 0.100064 0.186795 0.202037
v -0.285856 -0.151005 0.166233
v -0.257225 -0.151005 0.004450
v -0.289234 -0.128805 0.202037
v -0.242217 0.186795 -0.193138
v -0.230234 0.208995 -0.157334
v -0.314997 -0.151005 -0.157334
v -0.260397 0.208995 0.004450
v -0.198599 0.208995 0.166233
v -0.324779 -0.128805 -0.193138
v -0.197584 0.186795 0.202037
v 0.307489 -0.059361 0.005476
v 0.097946 0.154995 0.005476
v 0.121317 0.028995 0.005476
v 0.356791 -0.057113 0.005476
v 0.100064 0.186795 0.005476
v -0.290153 -0.097005 0.005762
v -0.196387 0.154995 0.005762
v -0.228801 0.028995 0.005762
v -0.289234 -0.128805 0.005762
v -0.221921 0.186795 0.005762
vt 0.570589 0.654726
vt 0.497063 0.656145
vt 0.498352 0.561696
vt 0.604132 0.556233
vt 0.498691 0.536867
vt 0.498984 0.515399
vt 0.595367 0.510469
vt 0.500002 0.440769
vt 0.495722 0.754363
vt 0.620062 0.780140
vt 0.495366 0.780443
vt 0.617380 0.802923
vt 0.495056 0.803167
vt 0.585429 0.881463
vt 0.493987 0.881463
vt 0.501652 0.319843
vt 0.502941 0.225399
vt 0.738475 0.236380
vt 0.731650 0.338024
vt 0.835884 0.316299
vt 0.838396 0.346613
vt 0.735366 0.371817
vt 0.718307 0.363820
vt 0.501313 0.344671
vt 0.840268 0.371818
vt 0.755614 0.385114
vt 0.750071 0.364821
vt 0.736021 0.387371
vt 0.713148 0.382798
vt 0.501020 0.366139
vt 0.755954 0.403853
vt 0.735618 0.405171
vt 0.711852 0.400967
vt 0.581241 0.441876
vt 0.841730 0.418474
vt 0.504282 0.127186
vt 0.942953 0.320724
vt 0.952471 0.354792
vt 0.933866 0.351373
vt 0.742013 0.134433
vt 0.504638 0.101108
vt 0.931787 0.374794
vt 0.969182 0.338104
vt 0.985946 0.359886
vt 0.504948 0.078385
vt 0.743473 0.085376
vt 0.955907 0.373688
vt 0.957303 0.388125
vt 0.932484 0.388855
vt 0.597419 0.002591
vt 0.991190 0.392810
vt 0.331279 0.000094
vt 0.506017 0.000095
vt 0.432368 0.510166
vt 0.416779 0.439632
vt 0.391507 0.227548
vt 0.380384 0.352023
vt 0.352341 0.749992
vt 0.319303 0.876691
vt 0.424796 0.555881
vt 0.364723 0.078665
vt 0.375537 0.326354
vt 0.383775 0.650862
vt 0.344283 0.775949
vt 0.356025 0.127656
vt 0.429869 0.530793
vt 0.598513 0.530796
vt 0.620688 0.753967
vt 0.742798 0.108190
vt 0.744314 0.055799
vt 0.382326 0.372207
vt 0.327862 0.798266
vt 0.350039 0.101483
vt 0.000000 0.000000
vn 0.388200 0.921100 0.029000
vn 0.000000 1.000000 0.000000
vn 0.000000 0.961700 0.273900
vn 0.650800 0.731100 0.204500
vn 0.000000 0.694500 0.719500
vn 0.000000 0.256900 0.966400
vn 0.614600 0.242900 0.750500
vn 0.000000 0.000000 1.000000
vn 0.000000 0.961700 -0.274000
vn 0.729900 0.448200 -0.516000
vn 0.000000 0.694500 -0.719500
vn 0.655700 0.202900 -0.727200
vn 0.000000 0.256900 -0.966400
vn 0.451500 0.317800 -0.833700
vn 0.000000 0.000000 -1.000000
vn 0.000000 -0.961700 0.273900
vn 0.000000 -1.000000 0.000000
vn 0.194900 -0.980800 0.000000
vn 0.178700 -0.949500 0.257800
vn 0.647300 -0.762200 0.000000
vn 0.457300 -0.661600 0.594300
vn 0.151600 -0.685100 0.712500
vn 0.000000 -0.694500 0.719500
vn 0.961700 -0.274000 0.000000
vn 0.939500 -0.276000 0.202600
vn 0.631200 -0.737600 0.239800
vn 0.632400 -0.304800 0.712200
vn 0.135500 -0.258500 0.956400
vn 0.000000 -0.256900 0.966400
vn 0.731400 0.665300 0.149700
vn 0.499200 0.634100 0.590500
vn 0.225300 0.590700 0.774800
vn 0.447900 0.344400 0.825100
vn 0.614600 0.787900 -0.038600
vn 0.000000 -0.961700 -0.273900
vn 0.178700 -0.949500 -0.257800
vn 0.457300 -0.661600 -0.594300
vn 0.631200 -0.737600 -0.239800
vn 0.000000 -0.694500 -0.719500
vn 0.939500 -0.276000 -0.202600
vn 0.151600 -0.685100 -0.712500
vn 0.135700 -0.258400 -0.956500
vn 0.000000 -0.256900 -0.966400
vn 0.632300 -0.304500 -0.712400
vn 0.632300 0.495200 -0.595800
vn 0.792100 0.583700 -0.178400
vn 0.346000 0.622400 -0.702000
vn -0.689400 0.107300 -0.716400
vn -0.601800 0.268700 0.752100
vn -0.641000 0.235800 0.730400
vn -0.251700 -0.967600 0.019900
vn -0.649600 -0.541700 0.533500
vn -0.512300 0.842900 -0.164300
vn -0.574700 0.774400 0.264400
vn -0.626400 0.036200 -0.778600
vn -0.592700 -0.781000 0.196500
vn -0.971400 0.225700 0.073000
vn -0.520400 0.731400 -0.440700
vn -0.602500 -0.790000 -0.113400
vn -0.657700 0.499300 0.564100
vn 0.673900 0.497100 0.546500
vn 0.742900 0.653000 -0.147300
vn -0.707300 -0.031700 0.706200
vn -0.749700 0.331700 -0.572600
vn -0.808000 -0.249000 -0.533900
vn -0.115400 0.992500 -0.039800
vn 0.211700 0.977300 -0.007000
vn 0.799900 0.599400 0.027500
vn 0.996900 0.055100 0.056100
vn 0.959600 0.273700 0.065600
vn -0.885400 -0.457900 0.079700
vn -0.973300 0.219300 0.067600
vn -0.943000 0.318300 0.097200
vn -0.977400 -0.161900 0.136000
vn -0.681100 -0.727900 0.078200
usemtl Material.004
s 1
f 53/1/1 4/2/2 2/3/3
f 54/4/4 2/3/3 1/5/5
f 1/5/5 3/6/6 40/7/7
f 40/7/7 3/6/6 18/8/8
f 6/9/9 4/2/2 53/1/1
f 51/10/10 5/11/11 6/9/9
f 34/12/12 7/13/13 5/11/11
f 34/12/12 36/14/14 33/15/15
f 16/16/16 29/17/17 21/18/18
f 11/19/19 21/20/18 19/21/20
f 8/22/21 9/23/22 11/19/19
f 15/24/23 16/16/16 11/19/19
f 25/25/24 14/26/25 10/27/26
f 8/22/21 12/28/27 13/29/28
f 13/29/28 17/30/29 15/24/23
f 14/26/25 12/28/27 8/22/21
f 38/31/30 43/32/31 12/28/27
f 13/29/28 35/33/32 42/34/33
f 12/28/27 43/32/31 35/33/32
f 25/25/24 41/35/34 38/31/30
f 21/18/18 29/17/17 31/36/35
f 19/21/20 21/20/18 24/37/36
f 20/38/37 23/39/38 24/37/36
f 24/40/36 31/36/35 30/41/39
f 23/39/38 28/42/40 25/25/24
f 20/38/37 22/43/41 27/44/42
f 30/41/39 32/45/43 27/46/42
f 20/38/37 26/47/44 28/42/40
f 26/47/44 44/48/45 39/49/46
f 27/46/42 32/45/43 36/50/14
f 27/44/42 37/51/47 44/48/45
f 25/25/24 28/42/40 39/49/46
f 45/52/48 33/53/15 32/45/43
f 48/54/49 50/55/50 18/8/8
f 57/56/51 29/17/17 16/16/16
f 58/57/52 15/24/23 17/30/29
f 60/58/53 6/9/9 5/11/11
f 7/13/13 33/15/15 45/59/48
f 31/36/35 29/17/17 57/56/51
f 63/60/54 2/3/3 4/2/2
f 47/61/55 32/45/43 30/41/39
f 48/54/49 3/6/6 1/5/5
f 56/62/56 16/16/16 15/24/23
f 17/30/29 18/8/8 50/55/50
f 60/58/53 62/63/57 4/2/2
f 59/64/58 5/11/11 7/13/13
f 30/41/39 31/36/35 61/65/59
f 65/66/60 1/5/5 2/3/3
f 54/4/4 53/1/1 2/3/3
f 55/67/61 54/4/4 1/5/5
f 55/67/61 1/5/5 40/7/7
f 42/34/33 40/7/7 18/8/8
f 52/68/62 6/9/9 53/1/1
f 52/68/62 51/10/10 6/9/9
f 51/10/10 34/12/12 5/11/11
f 7/13/13 34/12/12 33/15/15
f 11/19/19 16/16/16 21/18/18
f 10/27/26 11/19/19 19/21/20
f 10/27/26 8/22/21 11/19/19
f 9/23/22 15/24/23 11/19/19
f 19/21/20 25/25/24 10/27/26
f 9/23/22 8/22/21 13/29/28
f 9/23/22 13/29/28 15/24/23
f 10/27/26 14/26/25 8/22/21
f 14/26/25 38/31/30 12/28/27
f 42/34/33 17/30/29 13/29/28
f 17/30/29 42/34/33 18/8/8
f 13/29/28 12/28/27 35/33/32
f 14/26/25 25/25/24 38/31/30
f 24/40/36 21/18/18 31/36/35
f 23/39/38 19/21/20 24/37/36
f 22/43/41 20/38/37 24/37/36
f 22/69/41 24/40/36 30/41/39
f 19/21/20 23/39/38 25/25/24
f 26/47/44 20/38/37 27/44/42
f 22/69/41 30/41/39 27/46/42
f 23/39/38 20/38/37 28/42/40
f 28/42/40 26/47/44 39/49/46
f 36/50/14 37/70/47 27/46/42
f 32/45/43 33/53/15 36/50/14
f 26/47/44 27/44/42 44/48/45
f 41/35/34 25/25/24 39/49/46
f 47/61/55 45/52/48 32/45/43
f 3/6/6 48/54/49 18/8/8
f 56/62/56 57/56/51 16/16/16
f 46/71/63 58/57/52 17/30/29
f 59/64/58 60/58/53 5/11/11
f 49/72/64 7/13/13 45/59/48
f 61/65/59 31/36/35 57/56/51
f 62/63/57 63/60/54 4/2/2
f 64/73/65 47/61/55 30/41/39
f 65/66/60 48/54/49 1/5/5
f 58/57/52 56/62/56 15/24/23
f 46/71/63 17/30/29 50/55/50
f 6/9/9 60/58/53 4/2/2
f 49/72/64 59/64/58 7/13/13
f 64/73/65 30/41/39 61/65/59
f 63/60/54 65/66/60 2/3/3
usemtl Material.004_NONE
f 38/31/30 41/35/34 69/74/66
f 43/74/31 69/74/66 66/74/67
f 66/74/67 68/74/68 42/33/33
f 68/74/68 67/74/69 40/34/7
f 67/74/69 70/74/70 55/7/61
f 54/4/4 55/67/61 70/74/70
f 69/35/66 41/49/34 39/48/46
f 44/74/45 37/51/47 66/74/67
f 36/50/14 68/74/68 66/74/67
f 34/12/12 67/74/69 68/74/68
f 51/10/10 70/74/70 67/74/69
f 52/68/62 53/1/1 70/74/70
f 56/57/56 58/74/52 74/74/71
f 58/74/52 46/71/63 71/74/72
f 50/55/50 73/74/73 71/74/72
f 48/54/49 72/74/74 73/74/73
f 72/54/74 48/66/49 65/74/60
f 75/74/75 65/60/60 63/63/54
f 75/74/75 62/58/57 60/64/53
f 72/74/74 75/74/75 59/72/58
f 73/74/73 72/74/74 49/59/64
f 71/74/72 73/74/73 45/61/48
f 64/74/65 74/74/71 71/74/72
f 74/74/71 64/65/65 61/56/59
f 43/74/31 38/31/30 69/74/66
f 35/32/32 43/74/31 66/74/67
f 35/74/32 66/74/67 42/33/33
f 42/74/33 68/74/68 40/34/7
f 40/74/7 67/74/69 55/7/61
f 53/74/1 54/4/4 70/74/70
f 44/74/45 69/35/66 39/48/46
f 69/74/66 44/74/45 66/74/67
f 37/51/47 36/50/14 66/74/67
f 36/50/14 34/12/12 68/74/68
f 34/12/12 51/10/10 67/74/69
f 51/10/10 52/68/62 70/74/70
f 57/62/51 56/57/56 74/74/71
f 74/74/71 58/74/52 71/74/72
f 46/71/63 50/55/50 71/74/72
f 50/55/50 48/54/49 73/74/73
f 75/74/75 72/54/74 65/74/60
f 62/74/57 75/74/75 63/63/54
f 59/74/58 75/74/75 60/64/53
f 49/74/64 72/74/74 59/72/58
f 45/74/48 73/74/73 49/59/64
f 47/74/55 71/74/72 45/61/48
f 47/73/55 64/74/65 71/74/72
f 57/74/51 74/74/71 61/56/59
